<svg version="1.0" xmlns="http://www.w3.org/2000/svg" width="266.667" height="76" viewBox="0 0 200 57"><path d="M40 9.5c0 .5 2.7 5.2 6 10.5 5.8 9.3 6 10 6 16.4V43h8v-6.3c0-5.9.3-6.9 5.5-15 8.4-13.5 8.2-12.5 2.7-11.9-2.6.3-4.8.8-5 1.1-.1.3-1.7 3-3.6 6l-3.3 5.3-3.7-6.1C49.4 10.9 48.4 10 46 10c-1.6 0-3.5-.3-4.4-.6-.9-.3-1.6-.3-1.6.1zM85.2 11c-4.1 2.5-5.6 5.8-4.8 10.5.8 4.2 4.3 6.8 11.8 8.5 3.6.9 4.8 1.7 4.8 3.1 0 3.5-7.2 3.6-11.2.2-1.5-1.3-2-1.2-4.4 1.1l-2.8 2.5 2.2 2.4c5.1 5.4 15.8 5.8 21.5.7 2.6-2.3 3.2-3.6 3.2-6.8 0-5.5-3.2-8.8-10.9-11-3.8-1.1-6.1-2.3-6.1-3.3 0-2.1 4.5-2.3 8.3-.3 3.3 1.8 3.3 1.7 5.9-.8 3-3 2.6-4.1-2.7-6.8-5-2.5-10.6-2.5-14.8 0zm86.8-.2c-10 5-10.9 24.4-1.3 30.8 3.7 2.4 11.9 2.4 15.6 0 6.3-4.2 8.8-16.8 4.9-24.6-3.6-7.2-11.9-9.9-19.2-6.2zm9.6 7c4.1 2.7 4.6 12.1.9 15.7-1.3 1.4-3.1 2.5-4 2.5-3.2 0-6.5-4.6-6.5-9 0-6.3 2.4-10 6.5-10 1.1 0 2.5.4 3.1.8zM0 26.5V43h7.9l.3-7.6.3-7.6 3.5 8.1c1.9 4.4 3.8 8.1 4.1 8.1.3 0 2.2-3.5 4.2-7.8l3.6-7.7v7.2L24 43h8V10h-7.7l-4 9-4 9-4.1-9-4.1-9H0v16.5zm133 0V43h24v-8h-16V10h-8v16.5zm-19 4V43h8V18h-8v12.5z"/></svg>