<?xml version="1.0" standalone="no"?>
<!DOCTYPE svg PUBLIC "-//W3C//DTD SVG 20010904//EN"
 "http://www.w3.org/TR/2001/REC-SVG-20010904/DTD/svg10.dtd">
<svg version="1.0" xmlns="http://www.w3.org/2000/svg"
 width="200.000000pt" height="57.000000pt" viewBox="0 0 200.000000 57.000000"
 preserveAspectRatio="xMidYMid meet">
<metadata>
Created by potrace 1.15, written by Peter Selinger 2001-2017
</metadata>
<g transform="translate(0.000000,57.000000) scale(0.100000,-0.100000)"
fill="#000000" stroke="none">
<path d="M400 475 c0 -5 27 -52 60 -105 58 -93 60 -100 60 -164 l0 -66 40 0
40 0 0 63 c0 59 3 69 55 150 84 135 82 125 27 119 -26 -3 -48 -8 -50 -11 -1
-3 -17 -30 -36 -60 l-33 -53 -37 61 c-32 52 -42 61 -66 61 -16 0 -35 3 -44 6
-9 3 -16 3 -16 -1z"/>
<path d="M852 460 c-41 -25 -56 -58 -48 -105 8 -42 43 -68 118 -85 36 -9 48
-17 48 -31 0 -35 -72 -36 -112 -2 -15 13 -20 12 -44 -11 l-28 -25 22 -24 c51
-54 158 -58 215 -7 26 23 32 36 32 68 0 55 -32 88 -109 110 -38 11 -61 23 -61
33 0 21 45 23 83 3 33 -18 33 -17 59 8 30 30 26 41 -27 68 -50 25 -106 25
-148 0z"/>
<path d="M1720 462 c-100 -50 -109 -244 -13 -308 37 -24 119 -24 156 0 63 42
88 168 49 246 -36 72 -119 99 -192 62z m96 -70 c41 -27 46 -121 9 -157 -13
-14 -31 -25 -40 -25 -32 0 -65 46 -65 90 0 63 24 100 65 100 11 0 25 -4 31 -8z"/>
<path d="M0 305 l0 -165 40 0 39 0 3 76 3 76 35 -81 c19 -44 38 -81 41 -81 3
0 22 35 42 78 l36 77 0 -72 1 -73 40 0 40 0 0 165 0 165 -39 0 -38 0 -40 -90
-40 -90 -41 90 -41 90 -40 0 -41 0 0 -165z"/>
<path d="M1330 305 l0 -165 120 0 120 0 0 40 0 40 -80 0 -80 0 0 125 0 125
-40 0 -40 0 0 -165z"/>
<path d="M1140 265 l0 -125 40 0 40 0 0 125 0 125 -40 0 -40 0 0 -125z"/>
</g>
</svg>
